<?xml version="1.0" encoding="UTF-8" standalone="no"?>
<!DOCTYPE svg PUBLIC "-//W3C//DTD SVG 1.1//EN"
 "http://www.w3.org/Graphics/SVG/1.1/DTD/svg11.dtd">
<!-- Generated by graphviz version 12.2.1 (0)
 -->
<!-- Title: mygraph Pages: 1 -->
<svg width="2704pt" height="764pt"
 viewBox="0.00 0.00 2703.53 764.00" xmlns="http://www.w3.org/2000/svg" xmlns:xlink="http://www.w3.org/1999/xlink">
<g id="graph0" class="graph" transform="scale(1 1) rotate(0) translate(4 760)">
<title>mygraph</title>
<polygon fill="white" stroke="none" points="-4,4 -4,-760 2699.53,-760 2699.53,4 -4,4"/>
<!-- &lt;0x57990e42f240&gt;@1 -->
<g id="node1" class="node">
<title>&lt;0x57990e42f240&gt;@1</title>
<ellipse fill="none" stroke="black" cx="2340" cy="-18" rx="129.07" ry="18"/>
<text text-anchor="middle" x="2340" y="-13.32" font-family="Times,serif" font-size="14.00">&lt;0x57990e42f240&gt;@1</text>
</g>
<!-- &lt;0x57990e42f450&gt;@0 -->
<g id="node2" class="node">
<title>&lt;0x57990e42f450&gt;@0</title>
<ellipse fill="none" stroke="black" cx="708" cy="-378" rx="129.07" ry="18"/>
<text text-anchor="middle" x="708" y="-373.32" font-family="Times,serif" font-size="14.00">&lt;0x57990e42f450&gt;@0</text>
</g>
<!-- &lt;0x79ef38009f60&gt;@0.5 -->
<g id="node3" class="node">
<title>&lt;0x79ef38009f60&gt;@0.5</title>
<ellipse fill="none" stroke="black" cx="1993" cy="-522" rx="135.91" ry="18"/>
<text text-anchor="middle" x="1993" y="-517.33" font-family="Times,serif" font-size="14.00">&lt;0x79ef38009f60&gt;@0.5</text>
</g>
<!-- &lt;0x79ef3800aa50&gt;@12345 -->
<g id="node4" class="node">
<title>&lt;0x79ef3800aa50&gt;@12345</title>
<ellipse fill="none" stroke="black" cx="1622" cy="-234" rx="153.27" ry="18"/>
<text text-anchor="middle" x="1622" y="-229.32" font-family="Times,serif" font-size="14.00">&lt;0x79ef3800aa50&gt;@12345</text>
</g>
<!-- &lt;0x79ef3800ad00&gt;@1103515245 -->
<g id="node5" class="node">
<title>&lt;0x79ef3800ad00&gt;@1103515245</title>
<ellipse fill="none" stroke="black" cx="1782" cy="-162" rx="185.37" ry="18"/>
<text text-anchor="middle" x="1782" y="-157.32" font-family="Times,serif" font-size="14.00">&lt;0x79ef3800ad00&gt;@1103515245</text>
</g>
<!-- &lt;0x79ef38004ac0&gt;@2 -->
<g id="node6" class="node">
<title>&lt;0x79ef38004ac0&gt;@2</title>
<ellipse fill="none" stroke="black" cx="2153" cy="-378" rx="127.49" ry="18"/>
<text text-anchor="middle" x="2153" y="-373.32" font-family="Times,serif" font-size="14.00">&lt;0x79ef38004ac0&gt;@2</text>
</g>
<!-- &lt;0x79ef380104b0&gt;@79 -->
<g id="node7" class="node">
<title>&lt;0x79ef380104b0&gt;@79</title>
<ellipse fill="none" stroke="black" cx="374" cy="-234" rx="135.39" ry="18"/>
<text text-anchor="middle" x="374" y="-229.32" font-family="Times,serif" font-size="14.00">&lt;0x79ef380104b0&gt;@79</text>
</g>
<!-- &lt;0x79ef38014c10&gt;@SigButton -->
<g id="node8" class="node">
<title>&lt;0x79ef38014c10&gt;@SigButton</title>
<ellipse fill="none" stroke="black" cx="899" cy="-450" rx="172.21" ry="18"/>
<text text-anchor="middle" x="899" y="-445.32" font-family="Times,serif" font-size="14.00">&lt;0x79ef38014c10&gt;@SigButton</text>
</g>
<!-- &lt;0x79ef3802a370&gt;@4.65661e&#45;10 -->
<g id="node9" class="node">
<title>&lt;0x79ef3802a370&gt;@4.65661e&#45;10</title>
<ellipse fill="none" stroke="black" cx="1274" cy="-450" rx="184.84" ry="18"/>
<text text-anchor="middle" x="1274" y="-445.32" font-family="Times,serif" font-size="14.00">&lt;0x79ef3802a370&gt;@4.65661e&#45;10</text>
</g>
<!-- &lt;0x79ef3802a990&gt;@SigBinOp -->
<g id="node10" class="node">
<title>&lt;0x79ef3802a990&gt;@SigBinOp</title>
<ellipse fill="none" stroke="black" cx="1269" cy="-522" rx="169.58" ry="18"/>
<text text-anchor="middle" x="1269" y="-517.33" font-family="Times,serif" font-size="14.00">&lt;0x79ef3802a990&gt;@SigBinOp</text>
</g>
<!-- &lt;0x79ef3802a990&gt;@SigBinOp&#45;&gt;&lt;0x79ef38014c10&gt;@SigButton -->
<g id="edge1" class="edge">
<title>&lt;0x79ef3802a990&gt;@SigBinOp&#45;&gt;&lt;0x79ef38014c10&gt;@SigButton</title>
<path fill="none" stroke="black" d="M1188.26,-505.72C1130.11,-494.72 1051.55,-479.86 990.98,-468.4"/>
<polygon fill="black" stroke="black" points="991.85,-465 981.38,-466.58 990.55,-471.88 991.85,-465"/>
</g>
<!-- &lt;0x79ef3802a990&gt;@SigBinOp&#45;&gt;&lt;0x79ef3802a370&gt;@4.65661e&#45;10 -->
<g id="edge2" class="edge">
<title>&lt;0x79ef3802a990&gt;@SigBinOp&#45;&gt;&lt;0x79ef3802a370&gt;@4.65661e&#45;10</title>
<path fill="none" stroke="black" d="M1270.24,-503.7C1270.76,-496.41 1271.38,-487.73 1271.96,-479.54"/>
<polygon fill="black" stroke="black" points="1275.45,-479.84 1272.67,-469.61 1268.47,-479.34 1275.45,-479.84"/>
</g>
<!-- &lt;0x79ef38032f60&gt;@SigProj -->
<g id="node11" class="node">
<title>&lt;0x79ef38032f60&gt;@SigProj</title>
<ellipse fill="none" stroke="black" cx="1644" cy="-378" rx="156.96" ry="18"/>
<text text-anchor="middle" x="1644" y="-373.32" font-family="Times,serif" font-size="14.00">&lt;0x79ef38032f60&gt;@SigProj</text>
</g>
<!-- &lt;0x79ef38033790&gt;@SigSum -->
<g id="node12" class="node">
<title>&lt;0x79ef38033790&gt;@SigSum</title>
<ellipse fill="none" stroke="black" cx="1644" cy="-306" rx="161.69" ry="18"/>
<text text-anchor="middle" x="1644" y="-301.32" font-family="Times,serif" font-size="14.00">&lt;0x79ef38033790&gt;@SigSum</text>
</g>
<!-- &lt;0x79ef38032f60&gt;@SigProj&#45;&gt;&lt;0x79ef38033790&gt;@SigSum -->
<g id="edge3" class="edge">
<title>&lt;0x79ef38032f60&gt;@SigProj&#45;&gt;&lt;0x79ef38033790&gt;@SigSum</title>
<path fill="none" stroke="black" d="M1644,-359.7C1644,-352.41 1644,-343.73 1644,-335.54"/>
<polygon fill="black" stroke="black" points="1647.5,-335.62 1644,-325.62 1640.5,-335.62 1647.5,-335.62"/>
</g>
<!-- &lt;0x79ef38033790&gt;@SigSum&#45;&gt;&lt;0x79ef3800aa50&gt;@12345 -->
<g id="edge8" class="edge">
<title>&lt;0x79ef38033790&gt;@SigSum&#45;&gt;&lt;0x79ef3800aa50&gt;@12345</title>
<path fill="none" stroke="black" d="M1638.56,-287.7C1636.22,-280.24 1633.42,-271.32 1630.79,-262.97"/>
<polygon fill="black" stroke="black" points="1634.17,-262.04 1627.83,-253.55 1627.49,-264.14 1634.17,-262.04"/>
</g>
<!-- &lt;0x79ef380332f0&gt;@SigBinOp -->
<g id="node15" class="node">
<title>&lt;0x79ef380332f0&gt;@SigBinOp</title>
<ellipse fill="none" stroke="black" cx="1961" cy="-234" rx="167.48" ry="18"/>
<text text-anchor="middle" x="1961" y="-229.32" font-family="Times,serif" font-size="14.00">&lt;0x79ef380332f0&gt;@SigBinOp</text>
</g>
<!-- &lt;0x79ef38033790&gt;@SigSum&#45;&gt;&lt;0x79ef380332f0&gt;@SigBinOp -->
<g id="edge9" class="edge">
<title>&lt;0x79ef38033790&gt;@SigSum&#45;&gt;&lt;0x79ef380332f0&gt;@SigBinOp</title>
<path fill="none" stroke="black" d="M1714.75,-289.38C1763.37,-278.64 1828.07,-264.35 1878.96,-253.12"/>
<polygon fill="black" stroke="black" points="1879.43,-256.6 1888.44,-251.02 1877.93,-249.76 1879.43,-256.6"/>
</g>
<!-- &lt;0x79ef38033050&gt;@SigDelay -->
<g id="node13" class="node">
<title>&lt;0x79ef38033050&gt;@SigDelay</title>
<ellipse fill="none" stroke="black" cx="2164" cy="-90" rx="167.48" ry="18"/>
<text text-anchor="middle" x="2164" y="-85.33" font-family="Times,serif" font-size="14.00">&lt;0x79ef38033050&gt;@SigDelay</text>
</g>
<!-- &lt;0x79ef38033050&gt;@SigDelay&#45;&gt;&lt;0x57990e42f240&gt;@1 -->
<g id="edge4" class="edge">
<title>&lt;0x79ef38033050&gt;@SigDelay&#45;&gt;&lt;0x57990e42f240&gt;@1</title>
<path fill="none" stroke="black" d="M2206.16,-72.23C2230.74,-62.46 2261.94,-50.05 2288.03,-39.67"/>
<polygon fill="black" stroke="black" points="2289.09,-43.02 2297.09,-36.07 2286.5,-36.51 2289.09,-43.02"/>
</g>
<!-- &lt;0x79ef38033180&gt;@SigClocked -->
<g id="node14" class="node">
<title>&lt;0x79ef38033180&gt;@SigClocked</title>
<ellipse fill="none" stroke="black" cx="2164" cy="-162" rx="178.53" ry="18"/>
<text text-anchor="middle" x="2164" y="-157.32" font-family="Times,serif" font-size="14.00">&lt;0x79ef38033180&gt;@SigClocked</text>
</g>
<!-- &lt;0x79ef38033180&gt;@SigClocked&#45;&gt;&lt;0x79ef38033050&gt;@SigDelay -->
<g id="edge5" class="edge">
<title>&lt;0x79ef38033180&gt;@SigClocked&#45;&gt;&lt;0x79ef38033050&gt;@SigDelay</title>
<path fill="none" stroke="black" d="M2164,-143.7C2164,-136.41 2164,-127.73 2164,-119.54"/>
<polygon fill="black" stroke="black" points="2167.5,-119.62 2164,-109.62 2160.5,-119.62 2167.5,-119.62"/>
</g>
<!-- &lt;0x79ef380332f0&gt;@SigBinOp&#45;&gt;&lt;0x79ef3800ad00&gt;@1103515245 -->
<g id="edge6" class="edge">
<title>&lt;0x79ef380332f0&gt;@SigBinOp&#45;&gt;&lt;0x79ef3800ad00&gt;@1103515245</title>
<path fill="none" stroke="black" d="M1918.13,-216.23C1893.4,-206.56 1862.09,-194.32 1835.73,-184.01"/>
<polygon fill="black" stroke="black" points="1837.14,-180.81 1826.56,-180.42 1834.59,-187.33 1837.14,-180.81"/>
</g>
<!-- &lt;0x79ef380332f0&gt;@SigBinOp&#45;&gt;&lt;0x79ef38033180&gt;@SigClocked -->
<g id="edge7" class="edge">
<title>&lt;0x79ef380332f0&gt;@SigBinOp&#45;&gt;&lt;0x79ef38033180&gt;@SigClocked</title>
<path fill="none" stroke="black" d="M2009.37,-216.32C2037.88,-206.49 2074.18,-193.97 2104.45,-183.53"/>
<polygon fill="black" stroke="black" points="2105.56,-186.85 2113.87,-180.29 2103.28,-180.24 2105.56,-186.85"/>
</g>
<!-- &lt;0x79ef38033950&gt;@SigDelay -->
<g id="node16" class="node">
<title>&lt;0x79ef38033950&gt;@SigDelay</title>
<ellipse fill="none" stroke="black" cx="1644" cy="-450" rx="167.48" ry="18"/>
<text text-anchor="middle" x="1644" y="-445.32" font-family="Times,serif" font-size="14.00">&lt;0x79ef38033950&gt;@SigDelay</text>
</g>
<!-- &lt;0x79ef38033950&gt;@SigDelay&#45;&gt;&lt;0x57990e42f450&gt;@0 -->
<g id="edge10" class="edge">
<title>&lt;0x79ef38033950&gt;@SigDelay&#45;&gt;&lt;0x57990e42f450&gt;@0</title>
<path fill="none" stroke="black" d="M1524.75,-437.05C1505.78,-435.27 1486.36,-433.53 1468,-432 1245.7,-413.52 986.44,-396.38 835.41,-386.84"/>
<polygon fill="black" stroke="black" points="835.99,-383.37 825.79,-386.24 835.55,-390.36 835.99,-383.37"/>
</g>
<!-- &lt;0x79ef38033950&gt;@SigDelay&#45;&gt;&lt;0x79ef38032f60&gt;@SigProj -->
<g id="edge11" class="edge">
<title>&lt;0x79ef38033950&gt;@SigDelay&#45;&gt;&lt;0x79ef38032f60&gt;@SigProj</title>
<path fill="none" stroke="black" d="M1644,-431.7C1644,-424.41 1644,-415.73 1644,-407.54"/>
<polygon fill="black" stroke="black" points="1647.5,-407.62 1644,-397.62 1640.5,-407.62 1647.5,-407.62"/>
</g>
<!-- &lt;0x79ef38033a40&gt;@SigFloatCast -->
<g id="node17" class="node">
<title>&lt;0x79ef38033a40&gt;@SigFloatCast</title>
<ellipse fill="none" stroke="black" cx="1644" cy="-522" rx="186.94" ry="18"/>
<text text-anchor="middle" x="1644" y="-517.33" font-family="Times,serif" font-size="14.00">&lt;0x79ef38033a40&gt;@SigFloatCast</text>
</g>
<!-- &lt;0x79ef38033a40&gt;@SigFloatCast&#45;&gt;&lt;0x79ef38033950&gt;@SigDelay -->
<g id="edge12" class="edge">
<title>&lt;0x79ef38033a40&gt;@SigFloatCast&#45;&gt;&lt;0x79ef38033950&gt;@SigDelay</title>
<path fill="none" stroke="black" d="M1644,-503.7C1644,-496.41 1644,-487.73 1644,-479.54"/>
<polygon fill="black" stroke="black" points="1647.5,-479.62 1644,-469.62 1640.5,-479.62 1647.5,-479.62"/>
</g>
<!-- &lt;0x79ef38033c30&gt;@SigBinOp -->
<g id="node18" class="node">
<title>&lt;0x79ef38033c30&gt;@SigBinOp</title>
<ellipse fill="none" stroke="black" cx="1640" cy="-594" rx="169.06" ry="18"/>
<text text-anchor="middle" x="1640" y="-589.33" font-family="Times,serif" font-size="14.00">&lt;0x79ef38033c30&gt;@SigBinOp</text>
</g>
<!-- &lt;0x79ef38033c30&gt;@SigBinOp&#45;&gt;&lt;0x79ef3802a990&gt;@SigBinOp -->
<g id="edge13" class="edge">
<title>&lt;0x79ef38033c30&gt;@SigBinOp&#45;&gt;&lt;0x79ef3802a990&gt;@SigBinOp</title>
<path fill="none" stroke="black" d="M1559.5,-577.81C1501.02,-566.78 1421.77,-551.82 1360.82,-540.33"/>
<polygon fill="black" stroke="black" points="1361.63,-536.92 1351.15,-538.5 1360.33,-543.79 1361.63,-536.92"/>
</g>
<!-- &lt;0x79ef38033c30&gt;@SigBinOp&#45;&gt;&lt;0x79ef38033a40&gt;@SigFloatCast -->
<g id="edge14" class="edge">
<title>&lt;0x79ef38033c30&gt;@SigBinOp&#45;&gt;&lt;0x79ef38033a40&gt;@SigFloatCast</title>
<path fill="none" stroke="black" d="M1640.99,-575.7C1641.41,-568.41 1641.9,-559.73 1642.37,-551.54"/>
<polygon fill="black" stroke="black" points="1645.86,-551.8 1642.94,-541.62 1638.87,-551.4 1645.86,-551.8"/>
</g>
<!-- &lt;0x79ef38033da0&gt;@SigProj -->
<g id="node19" class="node">
<title>&lt;0x79ef38033da0&gt;@SigProj</title>
<ellipse fill="none" stroke="black" cx="374" cy="-378" rx="159.06" ry="18"/>
<text text-anchor="middle" x="374" y="-373.32" font-family="Times,serif" font-size="14.00">&lt;0x79ef38033da0&gt;@SigProj</text>
</g>
<!-- &lt;0x79ef38034e30&gt;@SigDelay -->
<g id="node20" class="node">
<title>&lt;0x79ef38034e30&gt;@SigDelay</title>
<ellipse fill="none" stroke="black" cx="374" cy="-306" rx="166.95" ry="18"/>
<text text-anchor="middle" x="374" y="-301.32" font-family="Times,serif" font-size="14.00">&lt;0x79ef38034e30&gt;@SigDelay</text>
</g>
<!-- &lt;0x79ef38033da0&gt;@SigProj&#45;&gt;&lt;0x79ef38034e30&gt;@SigDelay -->
<g id="edge15" class="edge">
<title>&lt;0x79ef38033da0&gt;@SigProj&#45;&gt;&lt;0x79ef38034e30&gt;@SigDelay</title>
<path fill="none" stroke="black" d="M374,-359.7C374,-352.41 374,-343.73 374,-335.54"/>
<polygon fill="black" stroke="black" points="377.5,-335.62 374,-325.62 370.5,-335.62 377.5,-335.62"/>
</g>
<!-- &lt;0x79ef38034e30&gt;@SigDelay&#45;&gt;&lt;0x79ef380104b0&gt;@79 -->
<g id="edge27" class="edge">
<title>&lt;0x79ef38034e30&gt;@SigDelay&#45;&gt;&lt;0x79ef380104b0&gt;@79</title>
<path fill="none" stroke="black" d="M374,-287.7C374,-280.41 374,-271.73 374,-263.54"/>
<polygon fill="black" stroke="black" points="377.5,-263.62 374,-253.62 370.5,-263.62 377.5,-263.62"/>
</g>
<!-- &lt;0x79ef38033ed0&gt;@SigClocked -->
<g id="node21" class="node">
<title>&lt;0x79ef38033ed0&gt;@SigClocked</title>
<ellipse fill="none" stroke="black" cx="178" cy="-450" rx="178" ry="18"/>
<text text-anchor="middle" x="178" y="-445.32" font-family="Times,serif" font-size="14.00">&lt;0x79ef38033ed0&gt;@SigClocked</text>
</g>
<!-- &lt;0x79ef38033ed0&gt;@SigClocked&#45;&gt;&lt;0x79ef38033da0&gt;@SigProj -->
<g id="edge16" class="edge">
<title>&lt;0x79ef38033ed0&gt;@SigClocked&#45;&gt;&lt;0x79ef38033da0&gt;@SigProj</title>
<path fill="none" stroke="black" d="M224.95,-432.23C252.58,-422.36 287.74,-409.81 316.96,-399.37"/>
<polygon fill="black" stroke="black" points="317.77,-402.8 326.01,-396.14 315.42,-396.21 317.77,-402.8"/>
</g>
<!-- &lt;0x79ef38034000&gt;@SigDelay -->
<g id="node22" class="node">
<title>&lt;0x79ef38034000&gt;@SigDelay</title>
<ellipse fill="none" stroke="black" cx="2153" cy="-450" rx="167.48" ry="18"/>
<text text-anchor="middle" x="2153" y="-445.32" font-family="Times,serif" font-size="14.00">&lt;0x79ef38034000&gt;@SigDelay</text>
</g>
<!-- &lt;0x79ef38034000&gt;@SigDelay&#45;&gt;&lt;0x79ef38004ac0&gt;@2 -->
<g id="edge17" class="edge">
<title>&lt;0x79ef38034000&gt;@SigDelay&#45;&gt;&lt;0x79ef38004ac0&gt;@2</title>
<path fill="none" stroke="black" d="M2153,-431.7C2153,-424.41 2153,-415.73 2153,-407.54"/>
<polygon fill="black" stroke="black" points="2156.5,-407.62 2153,-397.62 2149.5,-407.62 2156.5,-407.62"/>
</g>
<!-- &lt;0x79ef38034130&gt;@SigDelay -->
<g id="node23" class="node">
<title>&lt;0x79ef38034130&gt;@SigDelay</title>
<ellipse fill="none" stroke="black" cx="2517" cy="-90" rx="167.48" ry="18"/>
<text text-anchor="middle" x="2517" y="-85.33" font-family="Times,serif" font-size="14.00">&lt;0x79ef38034130&gt;@SigDelay</text>
</g>
<!-- &lt;0x79ef38034130&gt;@SigDelay&#45;&gt;&lt;0x57990e42f240&gt;@1 -->
<g id="edge18" class="edge">
<title>&lt;0x79ef38034130&gt;@SigDelay&#45;&gt;&lt;0x57990e42f240&gt;@1</title>
<path fill="none" stroke="black" d="M2474.6,-72.23C2449.89,-62.46 2418.51,-50.05 2392.27,-39.67"/>
<polygon fill="black" stroke="black" points="2393.74,-36.49 2383.15,-36.07 2391.16,-43 2393.74,-36.49"/>
</g>
<!-- &lt;0x79ef38034260&gt;@SigClocked -->
<g id="node24" class="node">
<title>&lt;0x79ef38034260&gt;@SigClocked</title>
<ellipse fill="none" stroke="black" cx="2517" cy="-450" rx="178.53" ry="18"/>
<text text-anchor="middle" x="2517" y="-445.32" font-family="Times,serif" font-size="14.00">&lt;0x79ef38034260&gt;@SigClocked</text>
</g>
<!-- &lt;0x79ef38034260&gt;@SigClocked&#45;&gt;&lt;0x79ef38034130&gt;@SigDelay -->
<g id="edge19" class="edge">
<title>&lt;0x79ef38034260&gt;@SigClocked&#45;&gt;&lt;0x79ef38034130&gt;@SigDelay</title>
<path fill="none" stroke="black" d="M2517,-431.51C2517,-404.71 2517,-351.87 2517,-307 2517,-307 2517,-307 2517,-233 2517,-193.74 2517,-148.38 2517,-119.69"/>
<polygon fill="black" stroke="black" points="2520.5,-120 2517,-110 2513.5,-120 2520.5,-120"/>
</g>
<!-- &lt;0x79ef38034700&gt;@SigSum -->
<g id="node25" class="node">
<title>&lt;0x79ef38034700&gt;@SigSum</title>
<ellipse fill="none" stroke="black" cx="2309" cy="-522" rx="161.69" ry="18"/>
<text text-anchor="middle" x="2309" y="-517.33" font-family="Times,serif" font-size="14.00">&lt;0x79ef38034700&gt;@SigSum</text>
</g>
<!-- &lt;0x79ef38034700&gt;@SigSum&#45;&gt;&lt;0x79ef38034000&gt;@SigDelay -->
<g id="edge20" class="edge">
<title>&lt;0x79ef38034700&gt;@SigSum&#45;&gt;&lt;0x79ef38034000&gt;@SigDelay</title>
<path fill="none" stroke="black" d="M2271.24,-504.05C2250.14,-494.59 2223.64,-482.7 2201.07,-472.57"/>
<polygon fill="black" stroke="black" points="2202.62,-469.43 2192.07,-468.53 2199.76,-475.82 2202.62,-469.43"/>
</g>
<!-- &lt;0x79ef38034700&gt;@SigSum&#45;&gt;&lt;0x79ef38034260&gt;@SigClocked -->
<g id="edge21" class="edge">
<title>&lt;0x79ef38034700&gt;@SigSum&#45;&gt;&lt;0x79ef38034260&gt;@SigClocked</title>
<path fill="none" stroke="black" d="M2358.29,-504.41C2387.74,-494.5 2425.36,-481.84 2456.59,-471.33"/>
<polygon fill="black" stroke="black" points="2457.54,-474.7 2465.91,-468.2 2455.31,-468.07 2457.54,-474.7"/>
</g>
<!-- &lt;0x79ef38034810&gt;@SigBinOp -->
<g id="node26" class="node">
<title>&lt;0x79ef38034810&gt;@SigBinOp</title>
<ellipse fill="none" stroke="black" cx="1997" cy="-594" rx="170.11" ry="18"/>
<text text-anchor="middle" x="1997" y="-589.33" font-family="Times,serif" font-size="14.00">&lt;0x79ef38034810&gt;@SigBinOp</text>
</g>
<!-- &lt;0x79ef38034810&gt;@SigBinOp&#45;&gt;&lt;0x79ef38009f60&gt;@0.5 -->
<g id="edge22" class="edge">
<title>&lt;0x79ef38034810&gt;@SigBinOp&#45;&gt;&lt;0x79ef38009f60&gt;@0.5</title>
<path fill="none" stroke="black" d="M1996.01,-575.7C1995.6,-568.41 1995.1,-559.73 1994.63,-551.54"/>
<polygon fill="black" stroke="black" points="1998.13,-551.4 1994.06,-541.62 1991.14,-551.8 1998.13,-551.4"/>
</g>
<!-- &lt;0x79ef38034810&gt;@SigBinOp&#45;&gt;&lt;0x79ef38034700&gt;@SigSum -->
<g id="edge23" class="edge">
<title>&lt;0x79ef38034810&gt;@SigBinOp&#45;&gt;&lt;0x79ef38034700&gt;@SigSum</title>
<path fill="none" stroke="black" d="M2067.41,-577.2C2115.11,-566.5 2178.28,-552.33 2228.07,-541.16"/>
<polygon fill="black" stroke="black" points="2228.65,-544.61 2237.64,-539.01 2227.12,-537.78 2228.65,-544.61"/>
</g>
<!-- &lt;0x79ef38034c70&gt;@SigSum -->
<g id="node27" class="node">
<title>&lt;0x79ef38034c70&gt;@SigSum</title>
<ellipse fill="none" stroke="black" cx="1818" cy="-666" rx="160.64" ry="18"/>
<text text-anchor="middle" x="1818" y="-661.33" font-family="Times,serif" font-size="14.00">&lt;0x79ef38034c70&gt;@SigSum</text>
</g>
<!-- &lt;0x79ef38034c70&gt;@SigSum&#45;&gt;&lt;0x79ef38033c30&gt;@SigBinOp -->
<g id="edge24" class="edge">
<title>&lt;0x79ef38034c70&gt;@SigSum&#45;&gt;&lt;0x79ef38033c30&gt;@SigBinOp</title>
<path fill="none" stroke="black" d="M1775.37,-648.23C1750.78,-638.56 1719.64,-626.32 1693.43,-616.01"/>
<polygon fill="black" stroke="black" points="1694.9,-612.83 1684.31,-612.43 1692.34,-619.34 1694.9,-612.83"/>
</g>
<!-- &lt;0x79ef38034c70&gt;@SigSum&#45;&gt;&lt;0x79ef38034810&gt;@SigBinOp -->
<g id="edge25" class="edge">
<title>&lt;0x79ef38034c70&gt;@SigSum&#45;&gt;&lt;0x79ef38034810&gt;@SigBinOp</title>
<path fill="none" stroke="black" d="M1860.88,-648.23C1885.6,-638.56 1916.91,-626.32 1943.27,-616.01"/>
<polygon fill="black" stroke="black" points="1944.41,-619.33 1952.45,-612.42 1941.86,-612.81 1944.41,-619.33"/>
</g>
<!-- &lt;0x79ef38034d40&gt;@SigClocked -->
<g id="node28" class="node">
<title>&lt;0x79ef38034d40&gt;@SigClocked</title>
<ellipse fill="none" stroke="black" cx="1818" cy="-738" rx="178.53" ry="18"/>
<text text-anchor="middle" x="1818" y="-733.33" font-family="Times,serif" font-size="14.00">&lt;0x79ef38034d40&gt;@SigClocked</text>
</g>
<!-- &lt;0x79ef38034d40&gt;@SigClocked&#45;&gt;&lt;0x79ef38034c70&gt;@SigSum -->
<g id="edge26" class="edge">
<title>&lt;0x79ef38034d40&gt;@SigClocked&#45;&gt;&lt;0x79ef38034c70&gt;@SigSum</title>
<path fill="none" stroke="black" d="M1818,-719.7C1818,-712.41 1818,-703.73 1818,-695.54"/>
<polygon fill="black" stroke="black" points="1821.5,-695.62 1818,-685.62 1814.5,-695.62 1821.5,-695.62"/>
</g>
<!-- &lt;0x79ef38035090&gt;@SigDelay -->
<g id="node29" class="node">
<title>&lt;0x79ef38035090&gt;@SigDelay</title>
<ellipse fill="none" stroke="black" cx="541" cy="-450" rx="167.48" ry="18"/>
<text text-anchor="middle" x="541" y="-445.32" font-family="Times,serif" font-size="14.00">&lt;0x79ef38035090&gt;@SigDelay</text>
</g>
<!-- &lt;0x79ef38035090&gt;@SigDelay&#45;&gt;&lt;0x57990e42f450&gt;@0 -->
<g id="edge28" class="edge">
<title>&lt;0x79ef38035090&gt;@SigDelay&#45;&gt;&lt;0x57990e42f450&gt;@0</title>
<path fill="none" stroke="black" d="M581.43,-432.05C604.47,-422.4 633.53,-410.21 658,-399.96"/>
<polygon fill="black" stroke="black" points="659.26,-403.23 667.13,-396.13 656.55,-396.77 659.26,-403.23"/>
</g>
<!-- &lt;0x79ef38035090&gt;@SigDelay&#45;&gt;&lt;0x79ef38033da0&gt;@SigProj -->
<g id="edge29" class="edge">
<title>&lt;0x79ef38035090&gt;@SigDelay&#45;&gt;&lt;0x79ef38033da0&gt;@SigProj</title>
<path fill="none" stroke="black" d="M500.57,-432.05C477.7,-422.47 448.89,-410.39 424.54,-400.18"/>
<polygon fill="black" stroke="black" points="426.03,-397.01 415.45,-396.37 423.32,-403.47 426.03,-397.01"/>
</g>
</g>
</svg>
