<?xml version="1.0" encoding="UTF-8" standalone="no"?>
<!DOCTYPE svg PUBLIC "-//W3C//DTD SVG 1.1//EN"
 "http://www.w3.org/Graphics/SVG/1.1/DTD/svg11.dtd">
<!-- Generated by graphviz version 12.2.1 (0)
 -->
<!-- Title: mygraph Pages: 1 -->
<svg width="672pt" height="188pt"
 viewBox="0.00 0.00 672.30 188.00" xmlns="http://www.w3.org/2000/svg" xmlns:xlink="http://www.w3.org/1999/xlink">
<g id="graph0" class="graph" transform="scale(1 1) rotate(0) translate(4 184)">
<title>mygraph</title>
<polygon fill="white" stroke="none" points="-4,4 -4,-184 668.3,-184 668.3,4 -4,4"/>
<!-- SigInput[0] -->
<g id="node1" class="node">
<title>SigInput[0]</title>
<ellipse fill="none" stroke="black" cx="176.15" cy="-18" rx="68.04" ry="18"/>
<text text-anchor="middle" x="176.15" y="-13.32" font-family="Times,serif" font-size="14.00">SigInput[0]</text>
</g>
<!-- SigClocked[nil,SigInput[0]] -->
<g id="node2" class="node">
<title>SigClocked[nil,SigInput[0]]</title>
<ellipse fill="none" stroke="black" cx="176.15" cy="-90" rx="146.96" ry="18"/>
<text text-anchor="middle" x="176.15" y="-85.33" font-family="Times,serif" font-size="14.00">SigClocked[nil,SigInput[0]]</text>
</g>
<!-- SigClocked[nil,SigInput[0]]&#45;&gt;SigInput[0] -->
<g id="edge1" class="edge">
<title>SigClocked[nil,SigInput[0]]&#45;&gt;SigInput[0]</title>
<path fill="none" stroke="black" d="M176.15,-71.7C176.15,-64.41 176.15,-55.73 176.15,-47.54"/>
<polygon fill="black" stroke="black" points="179.65,-47.62 176.15,-37.62 172.65,-47.62 179.65,-47.62"/>
</g>
<!-- SigInput[1] -->
<g id="node3" class="node">
<title>SigInput[1]</title>
<ellipse fill="none" stroke="black" cx="488.15" cy="-18" rx="68.04" ry="18"/>
<text text-anchor="middle" x="488.15" y="-13.32" font-family="Times,serif" font-size="14.00">SigInput[1]</text>
</g>
<!-- SigClocked[nil,SigInput[1]] -->
<g id="node4" class="node">
<title>SigClocked[nil,SigInput[1]]</title>
<ellipse fill="none" stroke="black" cx="488.15" cy="-90" rx="146.96" ry="18"/>
<text text-anchor="middle" x="488.15" y="-85.33" font-family="Times,serif" font-size="14.00">SigClocked[nil,SigInput[1]]</text>
</g>
<!-- SigClocked[nil,SigInput[1]]&#45;&gt;SigInput[1] -->
<g id="edge2" class="edge">
<title>SigClocked[nil,SigInput[1]]&#45;&gt;SigInput[1]</title>
<path fill="none" stroke="black" d="M488.15,-71.7C488.15,-64.41 488.15,-55.73 488.15,-47.54"/>
<polygon fill="black" stroke="black" points="491.65,-47.62 488.15,-37.62 484.65,-47.62 491.65,-47.62"/>
</g>
<!-- SigSum[SigClocked[nil,SigInput[0]],SigClocked[nil,SigInput[1]]] -->
<g id="node5" class="node">
<title>SigSum[SigClocked[nil,SigInput[0]],SigClocked[nil,SigInput[1]]]</title>
<ellipse fill="none" stroke="black" cx="332.15" cy="-162" rx="332.15" ry="18"/>
<text text-anchor="middle" x="332.15" y="-157.32" font-family="Times,serif" font-size="14.00">SigSum[SigClocked[nil,SigInput[0]],SigClocked[nil,SigInput[1]]]</text>
</g>
<!-- SigSum[SigClocked[nil,SigInput[0]],SigClocked[nil,SigInput[1]]]&#45;&gt;SigClocked[nil,SigInput[0]] -->
<g id="edge3" class="edge">
<title>SigSum[SigClocked[nil,SigInput[0]],SigClocked[nil,SigInput[1]]]&#45;&gt;SigClocked[nil,SigInput[0]]</title>
<path fill="none" stroke="black" d="M293.59,-143.7C272.56,-134.26 246.34,-122.49 224.01,-112.48"/>
<polygon fill="black" stroke="black" points="225.67,-109.38 215.11,-108.48 222.8,-115.77 225.67,-109.38"/>
</g>
<!-- SigSum[SigClocked[nil,SigInput[0]],SigClocked[nil,SigInput[1]]]&#45;&gt;SigClocked[nil,SigInput[1]] -->
<g id="edge4" class="edge">
<title>SigSum[SigClocked[nil,SigInput[0]],SigClocked[nil,SigInput[1]]]&#45;&gt;SigClocked[nil,SigInput[1]]</title>
<path fill="none" stroke="black" d="M370.71,-143.7C391.74,-134.26 417.96,-122.49 440.29,-112.48"/>
<polygon fill="black" stroke="black" points="441.5,-115.77 449.19,-108.48 438.63,-109.38 441.5,-115.77"/>
</g>
</g>
</svg>
