<?xml version="1.0" encoding="UTF-8" standalone="no"?>
<!DOCTYPE svg PUBLIC "-//W3C//DTD SVG 1.1//EN"
 "http://www.w3.org/Graphics/SVG/1.1/DTD/svg11.dtd">
<!-- Generated by graphviz version 12.2.1 (0)
 -->
<!-- Title: mygraph Pages: 1 -->
<svg width="510pt" height="312pt"
 viewBox="0.00 0.00 509.64 311.75" xmlns="http://www.w3.org/2000/svg" xmlns:xlink="http://www.w3.org/1999/xlink">
<g id="graph0" class="graph" transform="scale(1 1) rotate(0) translate(4 307.75)">
<title>mygraph</title>
<polygon fill="white" stroke="none" points="-4,4 -4,-307.75 505.64,-307.75 505.64,4 -4,4"/>
<!-- 0x7611b0003cf0 -->
<g id="node1" class="node">
<title>0x7611b0003cf0</title>
<ellipse fill="none" stroke="black" cx="191.08" cy="-18" rx="95.4" ry="18"/>
<text text-anchor="middle" x="191.08" y="-13.32" font-family="Times,serif" font-size="14.00">0x7611b0003cf0</text>
</g>
<!-- 0x7611b0003de0 -->
<g id="node2" class="node">
<title>0x7611b0003de0</title>
<ellipse fill="none" stroke="black" cx="191.08" cy="-107.25" rx="98.56" ry="18"/>
<text text-anchor="middle" x="191.08" y="-102.58" font-family="Times,serif" font-size="14.00">0x7611b0003de0</text>
</g>
<!-- 0x7611b0003de0&#45;&gt;0x7611b0003cf0 -->
<g id="edge1" class="edge">
<title>0x7611b0003de0&#45;&gt;0x7611b0003cf0</title>
<path fill="none" stroke="black" d="M191.08,-89.01C191.08,-77.18 191.08,-61.2 191.08,-47.5"/>
<polygon fill="black" stroke="black" points="194.58,-47.72 191.08,-37.72 187.58,-47.72 194.58,-47.72"/>
<text text-anchor="middle" x="215.46" y="-57.95" font-family="Times,serif" font-size="14.00">set{0}</text>
</g>
<!-- 0x7611b0003ed0 -->
<g id="node3" class="node">
<title>0x7611b0003ed0</title>
<ellipse fill="none" stroke="black" cx="403.08" cy="-18" rx="98.56" ry="18"/>
<text text-anchor="middle" x="403.08" y="-13.32" font-family="Times,serif" font-size="14.00">0x7611b0003ed0</text>
</g>
<!-- 0x7611b0003fc0 -->
<g id="node4" class="node">
<title>0x7611b0003fc0</title>
<ellipse fill="none" stroke="black" cx="403.08" cy="-107.25" rx="95.4" ry="18"/>
<text text-anchor="middle" x="403.08" y="-102.58" font-family="Times,serif" font-size="14.00">0x7611b0003fc0</text>
</g>
<!-- 0x7611b0003fc0&#45;&gt;0x7611b0003ed0 -->
<g id="edge2" class="edge">
<title>0x7611b0003fc0&#45;&gt;0x7611b0003ed0</title>
<path fill="none" stroke="black" d="M403.08,-89.01C403.08,-77.18 403.08,-61.2 403.08,-47.5"/>
<polygon fill="black" stroke="black" points="406.58,-47.72 403.08,-37.72 399.58,-47.72 406.58,-47.72"/>
<text text-anchor="middle" x="427.46" y="-57.95" font-family="Times,serif" font-size="14.00">set{0}</text>
</g>
<!-- 0x7611b0008110 -->
<g id="node5" class="node">
<title>0x7611b0008110</title>
<ellipse fill="none" stroke="black" cx="99.08" cy="-196.5" rx="99.08" ry="18"/>
<text text-anchor="middle" x="99.08" y="-191.82" font-family="Times,serif" font-size="14.00">0x7611b0008110</text>
</g>
<!-- 0x7611b000b600 -->
<g id="node6" class="node">
<title>0x7611b000b600</title>
<ellipse fill="none" stroke="black" cx="315.08" cy="-196.5" rx="99.08" ry="18"/>
<text text-anchor="middle" x="315.08" y="-191.82" font-family="Times,serif" font-size="14.00">0x7611b000b600</text>
</g>
<!-- 0x7611b000b600&#45;&gt;0x7611b0003de0 -->
<g id="edge3" class="edge">
<title>0x7611b000b600&#45;&gt;0x7611b0003de0</title>
<path fill="none" stroke="black" d="M291.18,-178.68C272.13,-165.28 245.27,-146.37 224.16,-131.52"/>
<polygon fill="black" stroke="black" points="226.35,-128.78 216.16,-125.89 222.32,-134.51 226.35,-128.78"/>
<text text-anchor="middle" x="288.57" y="-147.2" font-family="Times,serif" font-size="14.00">set{0}</text>
</g>
<!-- 0x7611b000b600&#45;&gt;0x7611b0003fc0 -->
<g id="edge4" class="edge">
<title>0x7611b000b600&#45;&gt;0x7611b0003fc0</title>
<path fill="none" stroke="black" d="M332.05,-178.68C345.12,-165.72 363.37,-147.63 378.1,-133.02"/>
<polygon fill="black" stroke="black" points="380.16,-135.91 384.79,-126.38 375.23,-130.94 380.16,-135.91"/>
<text text-anchor="middle" x="391.34" y="-147.2" font-family="Times,serif" font-size="14.00">set{0}</text>
</g>
<!-- 0x7611b000b710 -->
<g id="node7" class="node">
<title>0x7611b000b710</title>
<ellipse fill="none" stroke="black" cx="135.08" cy="-285.75" rx="99.08" ry="18"/>
<text text-anchor="middle" x="135.08" y="-281.07" font-family="Times,serif" font-size="14.00">0x7611b000b710</text>
</g>
<!-- 0x7611b000b710&#45;&gt;0x7611b0008110 -->
<g id="edge5" class="edge">
<title>0x7611b000b710&#45;&gt;0x7611b0008110</title>
<path fill="none" stroke="black" d="M127.97,-267.51C122.99,-255.44 116.23,-239.06 110.5,-225.17"/>
<polygon fill="black" stroke="black" points="113.81,-224.01 106.76,-216.1 107.34,-226.68 113.81,-224.01"/>
<text text-anchor="middle" x="144.68" y="-236.45" font-family="Times,serif" font-size="14.00">set{0}</text>
</g>
<!-- 0x7611b000b710&#45;&gt;0x7611b000b600 -->
<g id="edge6" class="edge">
<title>0x7611b000b710&#45;&gt;0x7611b000b600</title>
<path fill="none" stroke="black" d="M168.52,-268.54C197.47,-254.51 239.57,-234.1 271.22,-218.76"/>
<polygon fill="black" stroke="black" points="272.69,-221.94 280.16,-214.43 269.64,-215.64 272.69,-221.94"/>
<text text-anchor="middle" x="265.58" y="-236.45" font-family="Times,serif" font-size="14.00">set{0}</text>
</g>
</g>
</svg>
